_________________________  Visit us at _________________________
  
http://p2pdl.com  ____________________________  http://p2pdl.com


Black Hawk Down 2001 BRRip 720p x264 AAC - PRiSTiNE


Genre: Drama | History | War
Plot: 123 elite U.S. soldiers drop into Somalia to capture two top lieutenants of a renegade warlord
and find themselves in a desperate battle with a large force of heavily-armed Somalis.
Director: Ridley Scott
Stars: Josh Hartnett, Ewan McGregor, Tom Sizemore.
Rated: R for intense, realistic, graphic war violence, and for language.


IMDb: 
http://www.imdb.com/title/tt0265086/

Trailer:


Format                         : MPEG-4
File size                      : 802 MiB
Duration                       : 2h 24mn
Overall bit rate               : 777 Kbps
Video Format                   : AVC
Video Bit rate                 : 700 Kbps
Width                          : 1 280 pixels
Height                         : 536 pixels
Display aspect ratio           : 2.40:1
Frame rate mode                : Constant
Frame rate                     : 23.976 fps
Stream size                    : 719 MiB (90%)
Writing library                : x264 core 129 r2245
Audio Format                   : AAC
Duration                       : 2h 24mn
Audio Bit rate                 : 77.4 Kbps
Channel(s)                     : 2 channels
Channel positions              : Front: L R
Sampling rate                  : 48.0 KHz
Stream size                    : 79.9 MiB (10%)
Language                       : English
Subtitle                       : Yes(English)
Source                         : 720p.BluRay.DTS.x264-FoRM(Thanks)

Screenshots:
 
http://cdn.piczend.com/images/2tNz2yON/1362896444_tinybayblackhawkdown200.jpg


----------------------------------------------------------------------------------------------------


Encoded using revolutionary 10bit encoding, which enables us to provide you more crispier and
sharper images at small sizes, just make sure you follow our instructions without a fault.
Recommend to you to use latest version of VLC player. Install K-Lite Codec Pack or shark007 codecs
in case of any kind of problem in playback (For non-VLC Media Player users). Alternatively, install
Core AVC codecs, the fastest decoder that there is coupled with Community Center Codec Pack and play
on Windows Media Player Classic.


Encoder Notes: Looking For Early Access To Anything You Can Provide DVDScr, R5, DVDR, BluRay, Direct
Audio, Early Music Releases, Seedboxes, Dedicated Servers anything u can provide, Advance / Promo CDs/
DVDs. If You Got anything to offer contact me at "prg@hush.com".